# xmcd
#
# Track frame offsets:
#	150
#	20895
#	38665
#	58090
#	79120
#	95672
#	116650
#	134360
#	153688
#	174753
#
# Disc length: 2550 seconds
#
# Revision: 1
# Processed by: cddbd v1.5.2PL0 Copyright (c) Steve Scherf et al.
# Submitted via: audiograbber 1.83.01
#
DISCID=8209f40a
DTITLE=Tim McGraw - PSSD1295D
DYEAR=1900
DGENRE=Country
TTITLE0=Just To Hear You Say That You Love Me
TTITLE1=It's Your Love w/ Faith Hill
TTITLE2=Everywhere
TTITLE3=Don't Take The Girl
TTITLE4=Not A Moment Too Soon
TTITLE5=Just To Hear You Say That You Love Me (vocal)
TTITLE6=It's Your Love w/ Faith Hill (vocal)
TTITLE7=Everywhere (vocal)
TTITLE8=Don't Take The Girl (vocal)
TTITLE9=Not A Moment Too Soon (vocal)
EXTD=
EXTT0=
EXTT1=
EXTT2=
EXTT3=
EXTT4=
EXTT5=
EXTT6=
EXTT7=
EXTT8=
EXTT9=
PLAYORDER=
